<svg width="20" height="20" viewBox="0 0 20 20" fill="none" xmlns="http://www.w3.org/2000/svg">
<g clip-path="url(#clip0_718_7223)">
<path d="M2.75285 0.0488586C2.26436 0.16197 1.84892 0.488253 1.62066 0.945049L1.47913 1.22783L1.46544 9.89392L1.45631 18.5644H0.981514C0.451939 18.5644 0.301284 18.6209 0.0958455 18.9124C0.00453942 19.0386 -0.00915648 19.1038 0.00453942 19.317C0.0273659 19.6172 0.127803 19.7651 0.406286 19.8999L0.607159 20H8.05773H15.5037L15.7 19.8999C15.9283 19.7868 16.1109 19.5084 16.1109 19.2865C16.1109 19.1038 15.9374 18.7862 15.7777 18.6775C15.6681 18.5992 15.5631 18.5818 15.1476 18.5731L14.65 18.5557V15.5582V12.5607H15.0289C15.3348 12.5607 15.4261 12.5738 15.4855 12.6347C15.5448 12.7043 15.5585 12.9131 15.5722 14.1269C15.5905 15.3624 15.5996 15.5669 15.6727 15.754C15.942 16.4283 16.4305 16.8938 17.1016 17.1026C18.3068 17.4767 19.5988 16.7981 19.923 15.6278C20.028 15.245 20.0234 5.93936 19.923 5.51737C19.7723 4.92136 19.6171 4.71689 18.3981 3.54226C17.7818 2.94625 17.2203 2.4329 17.1518 2.3981C16.9783 2.31109 16.6222 2.31979 16.4305 2.41985C16.1109 2.57647 15.9694 3.03326 16.1383 3.35085C16.1794 3.42915 16.6816 3.93816 17.2523 4.49066C17.8229 5.03882 18.3297 5.56087 18.3753 5.64353C18.4575 5.7871 18.4621 6.01332 18.4757 10.5421L18.4849 15.2885L18.3844 15.432C18.147 15.7627 17.8229 15.854 17.4805 15.6844C17.097 15.4973 17.097 15.4886 17.0696 13.8224L17.0468 12.365L16.9053 12.0822C16.572 11.4166 16.0059 11.1251 15.0609 11.1251H14.65L14.6409 6.19604L14.6272 1.27133L14.5176 1.01031C14.367 0.65357 13.9515 0.257679 13.5772 0.114115L13.3033 0.00970459L8.14447 0.00100327C4.14527 -0.0033474 2.93546 0.00535393 2.75285 0.0488586ZM13.0704 1.51931C13.1343 1.60632 13.1435 2.49381 13.1435 10.0897V18.5644H8.05317H2.96285V10.0723C2.96285 2.23278 2.96742 1.57586 3.04047 1.50191C3.10894 1.42795 3.32808 1.4236 8.05773 1.4236H13.002L13.0704 1.51931Z" fill="#6B7772"/>
<path d="M4.65625 3.20312C4.58594 3.24609 4.49609 3.33594 4.45312 3.40625C4.37891 3.53125 4.375 3.60938 4.375 5.625C4.375 7.64062 4.37891 7.71875 4.45312 7.84375C4.49609 7.91406 4.58594 8.00391 4.65625 8.04688C4.78125 8.12109 4.86328 8.125 8.33984 8.125C11.793 8.125 11.8984 8.12109 12.0078 8.04688C12.0742 8.00781 12.1641 7.90625 12.2148 7.82422L12.3047 7.67578V5.63281C12.3047 3.67969 12.3008 3.58594 12.2266 3.44141C12.1836 3.35547 12.0898 3.25391 12.0195 3.20703C11.8867 3.125 11.875 3.125 8.33594 3.125C4.86328 3.125 4.78125 3.12891 4.65625 3.20312ZM11.0156 5.625V6.875H8.32031H5.625V5.625V4.375H8.32031H11.0156V5.625Z" fill="#6B7772"/>
<path d="M8.02734 10.2656C7.875 10.3594 7.5 10.7656 7.17969 11.1758C6.18359 12.4531 5.75781 13.6133 5.95312 14.5313C6.23828 15.8906 7.57422 16.7266 8.9375 16.4024C9.64453 16.2305 10.3398 15.6094 10.6055 14.9063C10.9492 13.9883 10.6953 12.918 9.83594 11.6524C9.54297 11.2227 8.87891 10.4297 8.70312 10.2969C8.54687 10.1836 8.18359 10.168 8.02734 10.2656ZM8.60937 12.1719C9.36328 13.1914 9.60937 13.9375 9.375 14.4844C9.27734 14.7071 8.98047 15.0117 8.77344 15.0977C8.12109 15.3711 7.37891 14.9766 7.22266 14.2735C7.14844 13.9453 7.22656 13.6055 7.50391 13.0547C7.71094 12.6406 8.25781 11.836 8.33203 11.836C8.34766 11.836 8.47266 11.9883 8.60937 12.1719Z" fill="#6B7772"/>
</g>
<defs>
<clipPath id="clip0_718_7223">
<rect width="20" height="20" fill="white"/>
</clipPath>
</defs>
</svg>
